<svg width="2000" height="2000" version="1.1" xmlns="http://www.w3.org/2000/svg" desc="Created with imagetracer.js version 1.2.6" ><path fill="rgb(0,0,0)" stroke="rgb(0,0,0)" stroke-width="1" opacity="0" d="M 0 0 L 2000 0 L 2000 2000 L 0 2000 L 0 0 Z M 832 385 L 831 386 L 818 386 L 817 387 L 793 389 L 762 395 L 736 402 L 700 415 Q 634 443 585 488 Q 527 540 491 614 Q 476 645 466 682 L 457 725 L 455 749 L 454 750 L 454 763 L 453 764 L 453 807 L 454 808 L 454 821 L 455 822 L 457 846 L 467 893 L 477 924 Q 505 998 554 1052 Q 608 1113 688 1150 L 726 1165 L 761 1175 L 792 1181 L 815 1183 L 816 1184 L 828 1184 L 829 1185 L 879 1185 L 880 1184 L 901 1183 L 902 1182 L 909 1182 L 937 1177 L 965 1170 Q 1033 1150 1084 1112 L 1086 1112 L 1411 1437 L 1425 1446 L 1446 1452 L 1462 1452 L 1475 1449 L 1494 1439 Q 1515 1424 1520 1394 L 1520 1378 L 1518 1368 Q 1514 1353 1505 1343 L 1180 1018 L 1180 1016 L 1204 979 Q 1220 951 1231 919 L 1245 869 L 1250 841 L 1251 824 L 1252 823 L 1252 812 L 1253 811 L 1253 761 L 1252 760 L 1252 748 L 1251 747 L 1250 731 L 1243 693 L 1233 658 Q 1204 576 1152 519 Q 1095 454 1012 417 Q 973 400 926 391 L 908 389 L 907 388 L 900 388 L 899 387 L 890 387 L 889 386 L 876 386 L 875 385 L 832 385 Z " /><path fill="rgb(0,0,0)" stroke="rgb(0,0,0)" stroke-width="1" opacity="0" d="M 830.5 519 L 876.5 519 L 877.5 520 L 885.5 520 L 886.5 521 L 909.5 524 L 949.5 536 Q 1006.8 559.2 1046 600.5 Q 1083.3 638.7 1104 693.5 L 1111 715.5 L 1117 744.5 L 1118 758.5 L 1119 759.5 L 1119 774.5 L 1120 775.5 L 1120 795.5 L 1119 796.5 L 1118 819.5 L 1114 842.5 Q 1106.8 874.3 1094 900.5 Q 1071 947.5 1034.5 981 Q 998.2 1015.2 947.5 1035 L 926.5 1042 L 894.5 1049 L 879.5 1050 L 878.5 1051 L 863.5 1051 L 862.5 1052 L 843.5 1052 L 842.5 1051 L 819.5 1050 L 791.5 1045 Q 767.3 1039.2 746.5 1030 Q 695.6 1007.4 660 969.5 Q 624.6 932.9 604 881.5 L 598 864.5 L 591 836.5 L 589 818.5 L 588 817.5 L 588 809.5 L 587 808.5 L 587 787.5 L 586 783.5 L 587 782.5 L 587 762.5 L 588 761.5 L 588 752.5 L 589 751.5 L 591 733.5 L 596 712.5 L 610 674.5 Q 635.1 620.6 677.5 584 Q 708.6 556.6 749.5 539 L 792.5 525 L 820.5 520 L 829.5 520 L 830.5 519 Z " /><path fill="rgb(0,0,0)" stroke="rgb(0,0,0)" stroke-width="1" opacity="0.788235294117647" d="M 831.5 385 L 845 385.5 L 831.5 386 L 831.5 385 Z " /><path fill="rgb(0,0,0)" stroke="rgb(0,0,0)" stroke-width="1" opacity="0.788235294117647" d="M 861.5 385 L 875 385.5 L 861.5 386 L 861.5 385 Z " /><path fill="rgb(0,0,0)" stroke="rgb(0,0,0)" stroke-width="1" opacity="0.788235294117647" d="M 817.5 386 L 823 386.5 L 817.5 387 L 817.5 386 Z " /><path fill="rgb(0,0,0)" stroke="rgb(0,0,0)" stroke-width="1" opacity="0.788235294117647" d="M 883.5 386 L 889 386.5 L 883.5 387 L 883.5 386 Z " /><path fill="rgb(0,0,0)" stroke="rgb(0,0,0)" stroke-width="1" opacity="0.788235294117647" d="M 807.5 387 L 812 387.5 L 807.5 388 L 807.5 387 Z " /><path fill="rgb(0,0,0)" stroke="rgb(0,0,0)" stroke-width="1" opacity="0.788235294117647" d="M 894.5 387 L 899 387.5 L 894.5 388 L 894.5 387 Z " /><path fill="rgb(0,0,0)" stroke="rgb(0,0,0)" stroke-width="1" opacity="0.788235294117647" d="M 799.5 388 L 803 388.5 L 799.5 389 L 799.5 388 Z " /><path fill="rgb(0,0,0)" stroke="rgb(0,0,0)" stroke-width="1" opacity="0.788235294117647" d="M 903.5 388 L 907 388.5 L 903.5 389 L 903.5 388 Z " /><path fill="rgb(0,0,0)" stroke="rgb(0,0,0)" stroke-width="1" opacity="0.788235294117647" d="M 792.5 389 L 796 389.5 L 792.5 390 L 792.5 389 Z " /><path fill="rgb(0,0,0)" stroke="rgb(0,0,0)" stroke-width="1" opacity="0.788235294117647" d="M 910.5 389 L 914 389.5 L 910.5 390 L 910.5 389 Z " /><path fill="rgb(0,0,0)" stroke="rgb(0,0,0)" stroke-width="1" opacity="0.788235294117647" d="M 786.5 390 L 789 390.5 L 786.5 391 L 786.5 390 Z " /><path fill="rgb(0,0,0)" stroke="rgb(0,0,0)" stroke-width="1" opacity="0.788235294117647" d="M 917.5 390 L 920 390.5 L 917.5 391 L 917.5 390 Z " /><path fill="rgb(0,0,0)" stroke="rgb(0,0,0)" stroke-width="1" opacity="0.788235294117647" d="M 780.5 391 L 783 391.5 L 780.5 392 L 780.5 391 Z " /><path fill="rgb(0,0,0)" stroke="rgb(0,0,0)" stroke-width="1" opacity="0.788235294117647" d="M 923.5 391 L 926 391.5 L 923.5 392 L 923.5 391 Z " /><path fill="rgb(0,0,0)" stroke="rgb(0,0,0)" stroke-width="1" opacity="0.788235294117647" d="M 775.5 392 L 778 392.5 L 775.5 393 L 775.5 392 Z " /><path fill="rgb(0,0,0)" stroke="rgb(0,0,0)" stroke-width="1" opacity="0.788235294117647" d="M 928.5 392 L 931 392.5 L 928.5 393 L 928.5 392 Z " /><path fill="rgb(0,0,0)" stroke="rgb(0,0,0)" stroke-width="1" opacity="0.788235294117647" d="M 770.5 393 L 773 393.5 L 770.5 394 L 770.5 393 Z " /><path fill="rgb(0,0,0)" stroke="rgb(0,0,0)" stroke-width="1" opacity="0.788235294117647" d="M 938.5 394 L 941 394.5 L 938.5 395 L 938.5 394 Z " /><path fill="rgb(0,0,0)" stroke="rgb(0,0,0)" stroke-width="1" opacity="0.788235294117647" d="M 669.5 429 L 668.5 431 L 666.5 432 L 667.5 430 L 669.5 429 Z " /><path fill="rgb(0,0,0)" stroke="rgb(0,0,0)" stroke-width="1" opacity="0.788235294117647" d="M 1040.5 431 L 1044 433.5 L 1042.5 433 L 1040.5 431 Z " /><path fill="rgb(0,0,0)" stroke="rgb(0,0,0)" stroke-width="1" opacity="0.788235294117647" d="M 656.5 436 L 655.5 438 L 656.5 436 Z " /><path fill="rgb(0,0,0)" stroke="rgb(0,0,0)" stroke-width="1" opacity="0.788235294117647" d="M 1051.5 437 L 1052.5 439 L 1051.5 437 Z " /><path fill="rgb(0,0,0)" stroke="rgb(0,0,0)" stroke-width="1" opacity="0.788235294117647" d="M 1056.5 440 L 1057.5 442 L 1056.5 440 Z " /><path fill="rgb(0,0,0)" stroke="rgb(0,0,0)" stroke-width="1" opacity="0.788235294117647" d="M 1061.5 443 L 1062.5 445 L 1061.5 443 Z " /><path fill="rgb(0,0,0)" stroke="rgb(0,0,0)" stroke-width="1" opacity="0.788235294117647" d="M 641.5 445 L 640.5 447 L 641.5 445 Z " /><path fill="rgb(0,0,0)" stroke="rgb(0,0,0)" stroke-width="1" opacity="0.788235294117647" d="M 1069.5 448 L 1070.5 450 L 1069.5 448 Z " /><path fill="rgb(0,0,0)" stroke="rgb(0,0,0)" stroke-width="1" opacity="0.788235294117647" d="M 1072.5 450 L 1073.5 452 L 1072.5 450 Z " /><path fill="rgb(0,0,0)" stroke="rgb(0,0,0)" stroke-width="1" opacity="0.788235294117647" d="M 1075.5 452 L 1076.5 454 L 1075.5 452 Z " /><path fill="rgb(0,0,0)" stroke="rgb(0,0,0)" stroke-width="1" opacity="0.788235294117647" d="M 1078.5 454 L 1079.5 456 L 1078.5 454 Z " /><path fill="rgb(0,0,0)" stroke="rgb(0,0,0)" stroke-width="1" opacity="0.788235294117647" d="M 626.5 455 L 625.5 457 L 626.5 455 Z " /><path fill="rgb(0,0,0)" stroke="rgb(0,0,0)" stroke-width="1" opacity="0.788235294117647" d="M 1081.5 456 L 1082.5 458 L 1081.5 456 Z " /><path fill="rgb(0,0,0)" stroke="rgb(0,0,0)" stroke-width="1" opacity="0.788235294117647" d="M 623.5 457 L 622.5 459 L 623.5 457 Z " /><path fill="rgb(0,0,0)" stroke="rgb(0,0,0)" stroke-width="1" opacity="0.788235294117647" d="M 620.5 459 L 619.5 461 L 620.5 459 Z " /><path fill="rgb(0,0,0)" stroke="rgb(0,0,0)" stroke-width="1" opacity="0.788235294117647" d="M 1085.5 459 L 1086.5 461 L 1085.5 459 Z " /><path fill="rgb(0,0,0)" stroke="rgb(0,0,0)" stroke-width="1" opacity="0.788235294117647" d="M 1088.5 461 L 1090.5 464 L 1088.5 461 Z " /><path fill="rgb(0,0,0)" stroke="rgb(0,0,0)" stroke-width="1" opacity="0.788235294117647" d="M 616.5 462 L 615.5 464 L 616.5 462 Z " /><path fill="rgb(0,0,0)" stroke="rgb(0,0,0)" stroke-width="1" opacity="0.788235294117647" d="M 1092.5 464 L 1094.5 467 L 1092.5 464 Z " /><path fill="rgb(0,0,0)" stroke="rgb(0,0,0)" stroke-width="1" opacity="0.788235294117647" d="M 612.5 465 L 611.5 467 L 612.5 465 Z " /><path fill="rgb(0,0,0)" stroke="rgb(0,0,0)" stroke-width="1" opacity="0.788235294117647" d="M 1096.5 467 L 1098.5 470 L 1096.5 467 Z " /><path fill="rgb(0,0,0)" stroke="rgb(0,0,0)" stroke-width="1" opacity="0.788235294117647" d="M 608.5 468 L 606.5 471 L 608.5 468 Z " /><path fill="rgb(0,0,0)" stroke="rgb(0,0,0)" stroke-width="1" opacity="0.788235294117647" d="M 604.5 471 L 602.5 474 L 604.5 471 Z " /><path fill="rgb(0,0,0)" stroke="rgb(0,0,0)" stroke-width="1" opacity="0.788235294117647" d="M 1101.5 471 L 1103.5 474 L 1101.5 471 Z " /><path fill="rgb(0,0,0)" stroke="rgb(0,0,0)" stroke-width="1" opacity="0.788235294117647" d="M 1106.5 475 L 1108.5 478 L 1106.5 475 Z " /><path fill="rgb(0,0,0)" stroke="rgb(0,0,0)" stroke-width="1" opacity="0.788235294117647" d="M 598.5 476 L 596.5 479 L 598.5 476 Z " /><path fill="rgb(0,0,0)" stroke="rgb(0,0,0)" stroke-width="1" opacity="0.788235294117647" d="M 1112.5 480 L 1115.5 484 L 1112.5 480 Z " /><path fill="rgb(0,0,0)" stroke="rgb(0,0,0)" stroke-width="1" opacity="0.788235294117647" d="M 592.5 481 L 589.5 485 L 592.5 481 Z " /><path fill="rgb(0,0,0)" stroke="rgb(0,0,0)" stroke-width="1" opacity="0.788235294117647" d="M 1119.5 486 L 1126.5 494 L 1119.5 486 Z " /><path fill="rgb(0,0,0)" stroke="rgb(0,0,0)" stroke-width="1" opacity="0.788235294117647" d="M 584.5 488 L 574.5 499 L 584.5 488 Z " /><path fill="rgb(0,0,0)" stroke="rgb(0,0,0)" stroke-width="1" opacity="0.788235294117647" d="M 566.5 506 L 556.5 517 L 566.5 506 Z " /><path fill="rgb(0,0,0)" stroke="rgb(0,0,0)" stroke-width="1" opacity="0.788235294117647" d="M 1144.5 511 L 1151.5 519 L 1144.5 511 Z " /><path fill="rgb(0,0,0)" stroke="rgb(0,0,0)" stroke-width="1" opacity="0.788235294117647" d="M 837.5 518 L 870 518.5 L 837.5 519 L 837.5 518 Z " /><path fill="rgb(0,0,0)" stroke="rgb(0,0,0)" stroke-width="1" opacity="0.788235294117647" d="M 825.5 519 L 830 519.5 L 825.5 520 L 825.5 519 Z " /><path fill="rgb(0,0,0)" stroke="rgb(0,0,0)" stroke-width="1" opacity="0.788235294117647" d="M 877.5 519 L 882 519.5 L 877.5 520 L 877.5 519 Z " /><path fill="rgb(0,0,0)" stroke="rgb(0,0,0)" stroke-width="1" opacity="0.788235294117647" d="M 553.5 520 L 549.5 525 L 553.5 520 Z " /><path fill="rgb(0,0,0)" stroke="rgb(0,0,0)" stroke-width="1" opacity="0.788235294117647" d="M 816.5 520 L 820 520.5 L 816.5 521 L 816.5 520 Z " /><path fill="rgb(0,0,0)" stroke="rgb(0,0,0)" stroke-width="1" opacity="0.788235294117647" d="M 886.5 520 L 890 520.5 L 886.5 521 L 886.5 520 Z " /><path fill="rgb(0,0,0)" stroke="rgb(0,0,0)" stroke-width="1" opacity="0.788235294117647" d="M 810.5 521 L 813 521.5 L 810.5 522 L 810.5 521 Z " /><path fill="rgb(0,0,0)" stroke="rgb(0,0,0)" stroke-width="1" opacity="0.788235294117647" d="M 893.5 521 L 896 521.5 L 893.5 522 L 893.5 521 Z " /><path fill="rgb(0,0,0)" stroke="rgb(0,0,0)" stroke-width="1" opacity="0.788235294117647" d="M 804.5 522 L 807 522.5 L 804.5 523 L 804.5 522 Z " /><path fill="rgb(0,0,0)" stroke="rgb(0,0,0)" stroke-width="1" opacity="0.788235294117647" d="M 899.5 522 L 902 522.5 L 899.5 523 L 899.5 522 Z " /><path fill="rgb(0,0,0)" stroke="rgb(0,0,0)" stroke-width="1" opacity="0.788235294117647" d="M 1154.5 522 L 1157.5 526 L 1154.5 522 Z " /><path fill="rgb(0,0,0)" stroke="rgb(0,0,0)" stroke-width="1" opacity="0.788235294117647" d="M 794.5 524 L 797 524.5 L 794.5 525 L 794.5 524 Z " /><path fill="rgb(0,0,0)" stroke="rgb(0,0,0)" stroke-width="1" opacity="0.788235294117647" d="M 547.5 527 L 544.5 531 L 547.5 527 Z " /><path fill="rgb(0,0,0)" stroke="rgb(0,0,0)" stroke-width="1" opacity="0.788235294117647" d="M 1160.5 529 L 1162.5 532 L 1160.5 529 Z " /><path fill="rgb(0,0,0)" stroke="rgb(0,0,0)" stroke-width="1" opacity="0.788235294117647" d="M 542.5 533 L 540.5 536 L 542.5 533 Z " /><path fill="rgb(0,0,0)" stroke="rgb(0,0,0)" stroke-width="1" opacity="0.788235294117647" d="M 1165.5 535 L 1167.5 538 L 1165.5 535 Z " /><path fill="rgb(0,0,0)" stroke="rgb(0,0,0)" stroke-width="1" opacity="0.788235294117647" d="M 538.5 538 L 536.5 541 L 538.5 538 Z " /><path fill="rgb(0,0,0)" stroke="rgb(0,0,0)" stroke-width="1" opacity="0.788235294117647" d="M 1168.5 539 L 1170.5 542 L 1168.5 539 Z " /><path fill="rgb(0,0,0)" stroke="rgb(0,0,0)" stroke-width="1" opacity="0.788235294117647" d="M 534.5 543 L 533.5 545 L 534.5 543 Z " /><path fill="rgb(0,0,0)" stroke="rgb(0,0,0)" stroke-width="1" opacity="0.788235294117647" d="M 1172.5 544 L 1173.5 546 L 1172.5 544 Z " /><path fill="rgb(0,0,0)" stroke="rgb(0,0,0)" stroke-width="1" opacity="0.788235294117647" d="M 531.5 547 L 530.5 549 L 531.5 547 Z " /><path fill="rgb(0,0,0)" stroke="rgb(0,0,0)" stroke-width="1" opacity="0.788235294117647" d="M 1175.5 548 L 1176.5 550 L 1175.5 548 Z " /><path fill="rgb(0,0,0)" stroke="rgb(0,0,0)" stroke-width="1" opacity="0.788235294117647" d="M 528.5 551 L 527.5 553 L 528.5 551 Z " /><path fill="rgb(0,0,0)" stroke="rgb(0,0,0)" stroke-width="1" opacity="0.788235294117647" d="M 1177.5 551 L 1178.5 553 L 1177.5 551 Z " /><path fill="rgb(0,0,0)" stroke="rgb(0,0,0)" stroke-width="1" opacity="0.788235294117647" d="M 526.5 554 L 525.5 556 L 526.5 554 Z " /><path fill="rgb(0,0,0)" stroke="rgb(0,0,0)" stroke-width="1" opacity="0.788235294117647" d="M 989.5 555 L 990.5 557 L 989.5 555 Z " /><path fill="rgb(0,0,0)" stroke="rgb(0,0,0)" stroke-width="1" opacity="0.788235294117647" d="M 1180.5 555 L 1181.5 557 L 1180.5 555 Z " /><path fill="rgb(0,0,0)" stroke="rgb(0,0,0)" stroke-width="1" opacity="0.788235294117647" d="M 524.5 557 L 523.5 559 L 524.5 557 Z " /><path fill="rgb(0,0,0)" stroke="rgb(0,0,0)" stroke-width="1" opacity="0.788235294117647" d="M 713.5 557 L 712.5 559 L 713.5 557 Z " /><path fill="rgb(0,0,0)" stroke="rgb(0,0,0)" stroke-width="1" opacity="0.788235294117647" d="M 994.5 558 L 995.5 560 L 994.5 558 Z " /><path fill="rgb(0,0,0)" stroke="rgb(0,0,0)" stroke-width="1" opacity="0.788235294117647" d="M 1182.5 558 L 1183.5 560 L 1182.5 558 Z " /><path fill="rgb(0,0,0)" stroke="rgb(0,0,0)" stroke-width="1" opacity="0.788235294117647" d="M 708.5 560 L 707.5 562 L 708.5 560 Z " /><path fill="rgb(0,0,0)" stroke="rgb(0,0,0)" stroke-width="1" opacity="0.788235294117647" d="M 997.5 560 L 998.5 562 L 997.5 560 Z " /><path fill="rgb(0,0,0)" stroke="rgb(0,0,0)" stroke-width="1" opacity="0.788235294117647" d="M 1184.5 561 L 1185.5 563 L 1184.5 561 Z " /><path fill="rgb(0,0,0)" stroke="rgb(0,0,0)" stroke-width="1" opacity="0.788235294117647" d="M 705.5 562 L 704.5 564 L 705.5 562 Z " /><path fill="rgb(0,0,0)" stroke="rgb(0,0,0)" stroke-width="1" opacity="0.788235294117647" d="M 1000.5 562 L 1001.5 564 L 1000.5 562 Z " /><path fill="rgb(0,0,0)" stroke="rgb(0,0,0)" stroke-width="1" opacity="0.788235294117647" d="M 702.5 564 L 701.5 566 L 702.5 564 Z " /><path fill="rgb(0,0,0)" stroke="rgb(0,0,0)" stroke-width="1" opacity="0.788235294117647" d="M 1003.5 564 L 1004.5 566 L 1003.5 564 Z " /><path fill="rgb(0,0,0)" stroke="rgb(0,0,0)" stroke-width="1" opacity="0.788235294117647" d="M 1186.5 564 L 1187.5 566 L 1186.5 564 Z " /><path fill="rgb(0,0,0)" stroke="rgb(0,0,0)" stroke-width="1" opacity="0.788235294117647" d="M 1006.5 566 L 1007.5 568 L 1006.5 566 Z " /><path fill="rgb(0,0,0)" stroke="rgb(0,0,0)" stroke-width="1" opacity="0.788235294117647" d="M 698.5 567 L 697.5 569 L 698.5 567 Z " /><path fill="rgb(0,0,0)" stroke="rgb(0,0,0)" stroke-width="1" opacity="0.788235294117647" d="M 1188.5 567 L 1189.5 569 L 1188.5 567 Z " /><path fill="rgb(0,0,0)" stroke="rgb(0,0,0)" stroke-width="1" opacity="0.788235294117647" d="M 695.5 569 L 694.5 571 L 695.5 569 Z " /><path fill="rgb(0,0,0)" stroke="rgb(0,0,0)" stroke-width="1" opacity="0.788235294117647" d="M 1010.5 569 L 1011.5 571 L 1010.5 569 Z " /><path fill="rgb(0,0,0)" stroke="rgb(0,0,0)" stroke-width="1" opacity="0.788235294117647" d="M 1190.5 570 L 1191.5 572 L 1190.5 570 Z " /><path fill="rgb(0,0,0)" stroke="rgb(0,0,0)" stroke-width="1" opacity="0.788235294117647" d="M 1013.5 571 L 1015.5 574 L 1013.5 571 Z " /><path fill="rgb(0,0,0)" stroke="rgb(0,0,0)" stroke-width="1" opacity="0.788235294117647" d="M 514.5 572 L 513.5 574 L 514.5 572 Z " /><path fill="rgb(0,0,0)" stroke="rgb(0,0,0)" stroke-width="1" opacity="0.788235294117647" d="M 691.5 572 L 689.5 575 L 691.5 572 Z " /><path fill="rgb(0,0,0)" stroke="rgb(0,0,0)" stroke-width="1" opacity="0.788235294117647" d="M 1018.5 575 L 1020.5 578 L 1018.5 575 Z " /><path fill="rgb(0,0,0)" stroke="rgb(0,0,0)" stroke-width="1" opacity="0.788235294117647" d="M 1193.5 575 L 1194.5 577 L 1193.5 575 Z " /><path fill="rgb(0,0,0)" stroke="rgb(0,0,0)" stroke-width="1" opacity="0.788235294117647" d="M 686.5 576 L 684.5 579 L 686.5 576 Z " /><path fill="rgb(0,0,0)" stroke="rgb(0,0,0)" stroke-width="1" opacity="0.788235294117647" d="M 1023.5 579 L 1026.5 583 L 1023.5 579 Z " /><path fill="rgb(0,0,0)" stroke="rgb(0,0,0)" stroke-width="1" opacity="0.788235294117647" d="M 681.5 580 L 678.5 584 L 681.5 580 Z " /><path fill="rgb(0,0,0)" stroke="rgb(0,0,0)" stroke-width="1" opacity="0.788235294117647" d="M 508.5 582 L 507.5 584 L 508.5 582 Z " /><path fill="rgb(0,0,0)" stroke="rgb(0,0,0)" stroke-width="1" opacity="0.788235294117647" d="M 1030.5 585 L 1036.5 592 L 1030.5 585 Z " /><path fill="rgb(0,0,0)" stroke="rgb(0,0,0)" stroke-width="1" opacity="0.788235294117647" d="M 1199.5 585 L 1200.5 587 L 1199.5 585 Z " /><path fill="rgb(0,0,0)" stroke="rgb(0,0,0)" stroke-width="1" opacity="0.788235294117647" d="M 674.5 586 L 654.5 607 L 674.5 586 Z " /><path fill="rgb(0,0,0)" stroke="rgb(0,0,0)" stroke-width="1" opacity="0.788235294117647" d="M 505.5 587 L 504.5 589 L 505.5 587 Z " /><path fill="rgb(0,0,0)" stroke="rgb(0,0,0)" stroke-width="1" opacity="0.788235294117647" d="M 1203.5 592 L 1204.5 594 L 1203.5 592 Z " /><path fill="rgb(0,0,0)" stroke="rgb(0,0,0)" stroke-width="1" opacity="0.788235294117647" d="M 499.5 598 L 499 599.5 L 497.5 602 L 498 600.5 L 499.5 598 Z " /><path fill="rgb(0,0,0)" stroke="rgb(0,0,0)" stroke-width="1" opacity="0.788235294117647" d="M 1046.5 601 L 1053.5 609 L 1046.5 601 Z " /><path fill="rgb(0,0,0)" stroke="rgb(0,0,0)" stroke-width="1" opacity="0.788235294117647" d="M 651.5 610 L 648.5 614 L 651.5 610 Z " /><path fill="rgb(0,0,0)" stroke="rgb(0,0,0)" stroke-width="1" opacity="0.788235294117647" d="M 1055.5 611 L 1058.5 615 L 1055.5 611 Z " /><path fill="rgb(0,0,0)" stroke="rgb(0,0,0)" stroke-width="1" opacity="0.788235294117647" d="M 646.5 616 L 644.5 619 L 646.5 616 Z " /><path fill="rgb(0,0,0)" stroke="rgb(0,0,0)" stroke-width="1" opacity="0.788235294117647" d="M 1060.5 617 L 1062.5 620 L 1060.5 617 Z " /><path fill="rgb(0,0,0)" stroke="rgb(0,0,0)" stroke-width="1" opacity="0.788235294117647" d="M 642.5 621 L 640.5 624 L 642.5 621 Z " /><path fill="rgb(0,0,0)" stroke="rgb(0,0,0)" stroke-width="1" opacity="0.788235294117647" d="M 1064.5 622 L 1066.5 625 L 1064.5 622 Z " /><path fill="rgb(0,0,0)" stroke="rgb(0,0,0)" stroke-width="1" opacity="0.788235294117647" d="M 638.5 626 L 637.5 628 L 638.5 626 Z " /><path fill="rgb(0,0,0)" stroke="rgb(0,0,0)" stroke-width="1" opacity="0.788235294117647" d="M 1067.5 626 L 1068.5 628 L 1067.5 626 Z " /><path fill="rgb(0,0,0)" stroke="rgb(0,0,0)" stroke-width="1" opacity="0.788235294117647" d="M 636.5 629 L 635.5 631 L 636.5 629 Z " /><path fill="rgb(0,0,0)" stroke="rgb(0,0,0)" stroke-width="1" opacity="0.788235294117647" d="M 1070.5 630 L 1071.5 632 L 1070.5 630 Z " /><path fill="rgb(0,0,0)" stroke="rgb(0,0,0)" stroke-width="1" opacity="0.788235294117647" d="M 633.5 633 L 632.5 635 L 633.5 633 Z " /><path fill="rgb(0,0,0)" stroke="rgb(0,0,0)" stroke-width="1" opacity="0.788235294117647" d="M 1072.5 633 L 1073.5 635 L 1072.5 633 Z " /><path fill="rgb(0,0,0)" stroke="rgb(0,0,0)" stroke-width="1" opacity="0.788235294117647" d="M 631.5 636 L 630.5 638 L 631.5 636 Z " /><path fill="rgb(0,0,0)" stroke="rgb(0,0,0)" stroke-width="1" opacity="0.788235294117647" d="M 629.5 639 L 628.5 641 L 629.5 639 Z " /><path fill="rgb(0,0,0)" stroke="rgb(0,0,0)" stroke-width="1" opacity="0.788235294117647" d="M 1078.5 642 L 1079.5 644 L 1078.5 642 Z " /><path fill="rgb(0,0,0)" stroke="rgb(0,0,0)" stroke-width="1" opacity="0.788235294117647" d="M 626.5 644 L 625.5 646 L 626.5 644 Z " /><path fill="rgb(0,0,0)" stroke="rgb(0,0,0)" stroke-width="1" opacity="0.788235294117647" d="M 1084.5 652 L 1085.5 654 L 1084.5 652 Z " /><path fill="rgb(0,0,0)" stroke="rgb(0,0,0)" stroke-width="1" opacity="0.788235294117647" d="M 620.5 654 L 619.5 656 L 620.5 654 Z " /><path fill="rgb(0,0,0)" stroke="rgb(0,0,0)" stroke-width="1" opacity="0.788235294117647" d="M 1244.5 701 L 1245 703.5 L 1244 703.5 L 1244.5 701 Z " /><path fill="rgb(0,0,0)" stroke="rgb(0,0,0)" stroke-width="1" opacity="0.788235294117647" d="M 461.5 702 L 462 704.5 L 461 704.5 L 461.5 702 Z " /><path fill="rgb(0,0,0)" stroke="rgb(0,0,0)" stroke-width="1" opacity="0.788235294117647" d="M 1245.5 706 L 1246 708.5 L 1245 708.5 L 1245.5 706 Z " /><path fill="rgb(0,0,0)" stroke="rgb(0,0,0)" stroke-width="1" opacity="0.788235294117647" d="M 460.5 707 L 461 709.5 L 460 709.5 L 460.5 707 Z " /><path fill="rgb(0,0,0)" stroke="rgb(0,0,0)" stroke-width="1" opacity="0.788235294117647" d="M 1246.5 711 L 1247 713.5 L 1246 713.5 L 1246.5 711 Z " /><path fill="rgb(0,0,0)" stroke="rgb(0,0,0)" stroke-width="1" opacity="0.788235294117647" d="M 459.5 712 L 460 714.5 L 459 714.5 L 459.5 712 Z " /><path fill="rgb(0,0,0)" stroke="rgb(0,0,0)" stroke-width="1" opacity="0.788235294117647" d="M 1247.5 717 L 1248 719.5 L 1247 719.5 L 1247.5 717 Z " /><path fill="rgb(0,0,0)" stroke="rgb(0,0,0)" stroke-width="1" opacity="0.788235294117647" d="M 458.5 718 L 459 720.5 L 458 720.5 L 458.5 718 Z " /><path fill="rgb(0,0,0)" stroke="rgb(0,0,0)" stroke-width="1" opacity="0.788235294117647" d="M 1248.5 723 L 1249 725.5 L 1248 725.5 L 1248.5 723 Z " /><path fill="rgb(0,0,0)" stroke="rgb(0,0,0)" stroke-width="1" opacity="0.788235294117647" d="M 457.5 724 L 458 727.5 L 457 727.5 L 457.5 724 Z " /><path fill="rgb(0,0,0)" stroke="rgb(0,0,0)" stroke-width="1" opacity="0.788235294117647" d="M 1113.5 725 L 1114 727.5 L 1113 727.5 L 1113.5 725 Z " /><path fill="rgb(0,0,0)" stroke="rgb(0,0,0)" stroke-width="1" opacity="0.788235294117647" d="M 592.5 726 L 593 728.5 L 592 728.5 L 592.5 726 Z " /><path fill="rgb(0,0,0)" stroke="rgb(0,0,0)" stroke-width="1" opacity="0.788235294117647" d="M 1249.5 730 L 1250 733.5 L 1249 733.5 L 1249.5 730 Z " /><path fill="rgb(0,0,0)" stroke="rgb(0,0,0)" stroke-width="1" opacity="0.788235294117647" d="M 456.5 731 L 457 734.5 L 456 734.5 L 456.5 731 Z " /><path fill="rgb(0,0,0)" stroke="rgb(0,0,0)" stroke-width="1" opacity="0.788235294117647" d="M 1115.5 735 L 1116 737.5 L 1115 737.5 L 1115.5 735 Z " /><path fill="rgb(0,0,0)" stroke="rgb(0,0,0)" stroke-width="1" opacity="0.788235294117647" d="M 590.5 736 L 591 738.5 L 590 738.5 L 590.5 736 Z " /><path fill="rgb(0,0,0)" stroke="rgb(0,0,0)" stroke-width="1" opacity="0.788235294117647" d="M 1250.5 738 L 1251 741.5 L 1250 741.5 L 1250.5 738 Z " /><path fill="rgb(0,0,0)" stroke="rgb(0,0,0)" stroke-width="1" opacity="0.788235294117647" d="M 455.5 739 L 456 743.5 L 455 743.5 L 455.5 739 Z " /><path fill="rgb(0,0,0)" stroke="rgb(0,0,0)" stroke-width="1" opacity="0.788235294117647" d="M 1116.5 741 L 1117 743.5 L 1116 743.5 L 1116.5 741 Z " /><path fill="rgb(0,0,0)" stroke="rgb(0,0,0)" stroke-width="1" opacity="0.788235294117647" d="M 589.5 742 L 590 744.5 L 589 744.5 L 589.5 742 Z " /><path fill="rgb(0,0,0)" stroke="rgb(0,0,0)" stroke-width="1" opacity="0.788235294117647" d="M 1117.5 747 L 1118 750.5 L 1117 750.5 L 1117.5 747 Z " /><path fill="rgb(0,0,0)" stroke="rgb(0,0,0)" stroke-width="1" opacity="0.788235294117647" d="M 1251.5 747 L 1252 752.5 L 1251 752.5 L 1251.5 747 Z " /><path fill="rgb(0,0,0)" stroke="rgb(0,0,0)" stroke-width="1" opacity="0.788235294117647" d="M 588.5 748 L 589 751.5 L 588 751.5 L 588.5 748 Z " /><path fill="rgb(0,0,0)" stroke="rgb(0,0,0)" stroke-width="1" opacity="0.788235294117647" d="M 454.5 749 L 455 754.5 L 454 754.5 L 454.5 749 Z " /><path fill="rgb(0,0,0)" stroke="rgb(0,0,0)" stroke-width="1" opacity="0.788235294117647" d="M 1118.5 755 L 1119 758.5 L 1118 758.5 L 1118.5 755 Z " /><path fill="rgb(0,0,0)" stroke="rgb(0,0,0)" stroke-width="1" opacity="0.788235294117647" d="M 587.5 756 L 588 761.5 L 587 761.5 L 587.5 756 Z " /><path fill="rgb(0,0,0)" stroke="rgb(0,0,0)" stroke-width="1" opacity="0.788235294117647" d="M 1252.5 760 L 1253 769.5 L 1252 769.5 L 1252.5 760 Z " /><path fill="rgb(0,0,0)" stroke="rgb(0,0,0)" stroke-width="1" opacity="0.788235294117647" d="M 453.5 763 L 454 776.5 L 453 776.5 L 453.5 763 Z " /><path fill="rgb(0,0,0)" stroke="rgb(0,0,0)" stroke-width="1" opacity="0.788235294117647" d="M 1119.5 765 L 1120 774.5 L 1119 774.5 L 1119.5 765 Z " /><path fill="rgb(0,0,0)" stroke="rgb(0,0,0)" stroke-width="1" opacity="0.788235294117647" d="M 586.5 769 L 587 782.5 L 586 782.5 L 586.5 769 Z " /><path fill="rgb(0,0,0)" stroke="rgb(0,0,0)" stroke-width="1" opacity="0.788235294117647" d="M 586.5 787 L 587 801.5 L 586 801.5 L 586.5 787 Z " /><path fill="rgb(0,0,0)" stroke="rgb(0,0,0)" stroke-width="1" opacity="0.788235294117647" d="M 453.5 793 L 454 806.5 L 453 806.5 L 453.5 793 Z " /><path fill="rgb(0,0,0)" stroke="rgb(0,0,0)" stroke-width="1" opacity="0.788235294117647" d="M 1119.5 796 L 1120 804.5 L 1119 804.5 L 1119.5 796 Z " /><path fill="rgb(0,0,0)" stroke="rgb(0,0,0)" stroke-width="1" opacity="0.788235294117647" d="M 1252.5 800 L 1253 810.5 L 1252 810.5 L 1252.5 800 Z " /><path fill="rgb(0,0,0)" stroke="rgb(0,0,0)" stroke-width="1" opacity="0.788235294117647" d="M 587.5 809 L 588 813.5 L 587 813.5 L 587.5 809 Z " /><path fill="rgb(0,0,0)" stroke="rgb(0,0,0)" stroke-width="1" opacity="0.788235294117647" d="M 1118.5 811 L 1119 814.5 L 1118 814.5 L 1118.5 811 Z " /><path fill="rgb(0,0,0)" stroke="rgb(0,0,0)" stroke-width="1" opacity="0.788235294117647" d="M 454.5 815 L 455 820.5 L 454 820.5 L 454.5 815 Z " /><path fill="rgb(0,0,0)" stroke="rgb(0,0,0)" stroke-width="1" opacity="0.788235294117647" d="M 588.5 818 L 589 821.5 L 588 821.5 L 588.5 818 Z " /><path fill="rgb(0,0,0)" stroke="rgb(0,0,0)" stroke-width="1" opacity="0.788235294117647" d="M 1251.5 818 L 1252 822.5 L 1251 822.5 L 1251.5 818 Z " /><path fill="rgb(0,0,0)" stroke="rgb(0,0,0)" stroke-width="1" opacity="0.788235294117647" d="M 1117.5 820 L 1118 822.5 L 1117 822.5 L 1117.5 820 Z " /><path fill="rgb(0,0,0)" stroke="rgb(0,0,0)" stroke-width="1" opacity="0.788235294117647" d="M 589.5 825 L 590 827.5 L 589 827.5 L 589.5 825 Z " /><path fill="rgb(0,0,0)" stroke="rgb(0,0,0)" stroke-width="1" opacity="0.788235294117647" d="M 455.5 826 L 456 830.5 L 455 830.5 L 455.5 826 Z " /><path fill="rgb(0,0,0)" stroke="rgb(0,0,0)" stroke-width="1" opacity="0.788235294117647" d="M 1116.5 827 L 1117 829.5 L 1116 829.5 L 1116.5 827 Z " /><path fill="rgb(0,0,0)" stroke="rgb(0,0,0)" stroke-width="1" opacity="0.788235294117647" d="M 1250.5 828 L 1251 832.5 L 1250 832.5 L 1250.5 828 Z " /><path fill="rgb(0,0,0)" stroke="rgb(0,0,0)" stroke-width="1" opacity="0.788235294117647" d="M 590.5 831 L 591 833.5 L 590 833.5 L 590.5 831 Z " /><path fill="rgb(0,0,0)" stroke="rgb(0,0,0)" stroke-width="1" opacity="0.788235294117647" d="M 456.5 835 L 457 838.5 L 456 838.5 L 456.5 835 Z " /><path fill="rgb(0,0,0)" stroke="rgb(0,0,0)" stroke-width="1" opacity="0.788235294117647" d="M 1249.5 837 L 1250 840.5 L 1249 840.5 L 1249.5 837 Z " /><path fill="rgb(0,0,0)" stroke="rgb(0,0,0)" stroke-width="1" opacity="0.788235294117647" d="M 457.5 842 L 458 845.5 L 457 845.5 L 457.5 842 Z " /><path fill="rgb(0,0,0)" stroke="rgb(0,0,0)" stroke-width="1" opacity="0.788235294117647" d="M 1248.5 844 L 1249 846.5 L 1248 846.5 L 1248.5 844 Z " /><path fill="rgb(0,0,0)" stroke="rgb(0,0,0)" stroke-width="1" opacity="0.788235294117647" d="M 458.5 849 L 459 851.5 L 458 851.5 L 458.5 849 Z " /><path fill="rgb(0,0,0)" stroke="rgb(0,0,0)" stroke-width="1" opacity="0.788235294117647" d="M 1247.5 850 L 1248 852.5 L 1247 852.5 L 1247.5 850 Z " /><path fill="rgb(0,0,0)" stroke="rgb(0,0,0)" stroke-width="1" opacity="0.788235294117647" d="M 459.5 855 L 460 857.5 L 459 857.5 L 459.5 855 Z " /><path fill="rgb(0,0,0)" stroke="rgb(0,0,0)" stroke-width="1" opacity="0.788235294117647" d="M 1246.5 856 L 1247 858.5 L 1246 858.5 L 1246.5 856 Z " /><path fill="rgb(0,0,0)" stroke="rgb(0,0,0)" stroke-width="1" opacity="0.788235294117647" d="M 462.5 870 L 463 872.5 L 462 872.5 L 462.5 870 Z " /><path fill="rgb(0,0,0)" stroke="rgb(0,0,0)" stroke-width="1" opacity="0.788235294117647" d="M 1089.5 909 L 1088.5 911 L 1089.5 909 Z " /><path fill="rgb(0,0,0)" stroke="rgb(0,0,0)" stroke-width="1" opacity="0.788235294117647" d="M 1084.5 918 L 1083.5 920 L 1084.5 918 Z " /><path fill="rgb(0,0,0)" stroke="rgb(0,0,0)" stroke-width="1" opacity="0.788235294117647" d="M 623.5 921 L 624.5 923 L 623.5 921 Z " /><path fill="rgb(0,0,0)" stroke="rgb(0,0,0)" stroke-width="1" opacity="0.788235294117647" d="M 1081.5 923 L 1080.5 925 L 1081.5 923 Z " /><path fill="rgb(0,0,0)" stroke="rgb(0,0,0)" stroke-width="1" opacity="0.788235294117647" d="M 626.5 926 L 627.5 928 L 626.5 926 Z " /><path fill="rgb(0,0,0)" stroke="rgb(0,0,0)" stroke-width="1" opacity="0.788235294117647" d="M 628.5 929 L 629.5 931 L 628.5 929 Z " /><path fill="rgb(0,0,0)" stroke="rgb(0,0,0)" stroke-width="1" opacity="0.788235294117647" d="M 1076.5 931 L 1075.5 933 L 1076.5 931 Z " /><path fill="rgb(0,0,0)" stroke="rgb(0,0,0)" stroke-width="1" opacity="0.788235294117647" d="M 630.5 932 L 631.5 934 L 630.5 932 Z " /><path fill="rgb(0,0,0)" stroke="rgb(0,0,0)" stroke-width="1" opacity="0.788235294117647" d="M 1074.5 934 L 1073.5 936 L 1074.5 934 Z " /><path fill="rgb(0,0,0)" stroke="rgb(0,0,0)" stroke-width="1" opacity="0.788235294117647" d="M 632.5 935 L 633.5 937 L 632.5 935 Z " /><path fill="rgb(0,0,0)" stroke="rgb(0,0,0)" stroke-width="1" opacity="0.788235294117647" d="M 634.5 938 L 635.5 940 L 634.5 938 Z " /><path fill="rgb(0,0,0)" stroke="rgb(0,0,0)" stroke-width="1" opacity="0.788235294117647" d="M 1069.5 941 L 1068.5 943 L 1069.5 941 Z " /><path fill="rgb(0,0,0)" stroke="rgb(0,0,0)" stroke-width="1" opacity="0.788235294117647" d="M 637.5 942 L 638.5 944 L 637.5 942 Z " /><path fill="rgb(0,0,0)" stroke="rgb(0,0,0)" stroke-width="1" opacity="0.788235294117647" d="M 639.5 945 L 641.5 948 L 639.5 945 Z " /><path fill="rgb(0,0,0)" stroke="rgb(0,0,0)" stroke-width="1" opacity="0.788235294117647" d="M 1066.5 945 L 1065.5 947 L 1066.5 945 Z " /><path fill="rgb(0,0,0)" stroke="rgb(0,0,0)" stroke-width="1" opacity="0.788235294117647" d="M 1063.5 949 L 1061.5 952 L 1063.5 949 Z " /><path fill="rgb(0,0,0)" stroke="rgb(0,0,0)" stroke-width="1" opacity="0.788235294117647" d="M 643.5 950 L 645.5 953 L 643.5 950 Z " /><path fill="rgb(0,0,0)" stroke="rgb(0,0,0)" stroke-width="1" opacity="0.788235294117647" d="M 1059.5 954 L 1057.5 957 L 1059.5 954 Z " /><path fill="rgb(0,0,0)" stroke="rgb(0,0,0)" stroke-width="1" opacity="0.788235294117647" d="M 647.5 955 L 650.5 959 L 647.5 955 Z " /><path fill="rgb(0,0,0)" stroke="rgb(0,0,0)" stroke-width="1" opacity="0.788235294117647" d="M 1054.5 960 L 1049.5 966 L 1054.5 960 Z " /><path fill="rgb(0,0,0)" stroke="rgb(0,0,0)" stroke-width="1" opacity="0.788235294117647" d="M 653.5 962 L 659.5 969 L 653.5 962 Z " /><path fill="rgb(0,0,0)" stroke="rgb(0,0,0)" stroke-width="1" opacity="0.788235294117647" d="M 499.5 972 L 502 975.5 L 500 974.5 L 499.5 972 Z " /><path fill="rgb(0,0,0)" stroke="rgb(0,0,0)" stroke-width="1" opacity="0.788235294117647" d="M 669.5 978 L 675.5 985 L 669.5 978 Z " /><path fill="rgb(0,0,0)" stroke="rgb(0,0,0)" stroke-width="1" opacity="0.788235294117647" d="M 1203.5 978 L 1202.5 980 L 1203.5 978 Z " /><path fill="rgb(0,0,0)" stroke="rgb(0,0,0)" stroke-width="1" opacity="0.788235294117647" d="M 1033.5 981 L 1028.5 987 L 1033.5 981 Z " /><path fill="rgb(0,0,0)" stroke="rgb(0,0,0)" stroke-width="1" opacity="0.788235294117647" d="M 505.5 983 L 506.5 985 L 505.5 983 Z " /><path fill="rgb(0,0,0)" stroke="rgb(0,0,0)" stroke-width="1" opacity="0.788235294117647" d="M 1199.5 985 L 1198.5 987 L 1199.5 985 Z " /><path fill="rgb(0,0,0)" stroke="rgb(0,0,0)" stroke-width="1" opacity="0.788235294117647" d="M 679.5 987 L 682.5 991 L 679.5 987 Z " /><path fill="rgb(0,0,0)" stroke="rgb(0,0,0)" stroke-width="1" opacity="0.788235294117647" d="M 508.5 988 L 509.5 990 L 508.5 988 Z " /><path fill="rgb(0,0,0)" stroke="rgb(0,0,0)" stroke-width="1" opacity="0.788235294117647" d="M 1024.5 989 L 1022.5 992 L 1024.5 989 Z " /><path fill="rgb(0,0,0)" stroke="rgb(0,0,0)" stroke-width="1" opacity="0.788235294117647" d="M 1196.5 990 L 1195.5 992 L 1196.5 990 Z " /><path fill="rgb(0,0,0)" stroke="rgb(0,0,0)" stroke-width="1" opacity="0.788235294117647" d="M 685.5 992 L 687.5 995 L 685.5 992 Z " /><path fill="rgb(0,0,0)" stroke="rgb(0,0,0)" stroke-width="1" opacity="0.788235294117647" d="M 511.5 993 L 512.5 995 L 511.5 993 Z " /><path fill="rgb(0,0,0)" stroke="rgb(0,0,0)" stroke-width="1" opacity="0.788235294117647" d="M 1019.5 993 L 1017.5 996 L 1019.5 993 Z " /><path fill="rgb(0,0,0)" stroke="rgb(0,0,0)" stroke-width="1" opacity="0.788235294117647" d="M 1193.5 995 L 1192.5 997 L 1193.5 995 Z " /><path fill="rgb(0,0,0)" stroke="rgb(0,0,0)" stroke-width="1" opacity="0.788235294117647" d="M 690.5 996 L 692.5 999 L 690.5 996 Z " /><path fill="rgb(0,0,0)" stroke="rgb(0,0,0)" stroke-width="1" opacity="0.788235294117647" d="M 1014.5 997 L 1013.5 999 L 1014.5 997 Z " /><path fill="rgb(0,0,0)" stroke="rgb(0,0,0)" stroke-width="1" opacity="0.788235294117647" d="M 1191.5 998 L 1190.5 1000 L 1191.5 998 Z " /><path fill="rgb(0,0,0)" stroke="rgb(0,0,0)" stroke-width="1" opacity="0.788235294117647" d="M 694.5 999 L 696.5 1002 L 694.5 999 Z " /><path fill="rgb(0,0,0)" stroke="rgb(0,0,0)" stroke-width="1" opacity="0.788235294117647" d="M 1010.5 1000 L 1009.5 1002 L 1010.5 1000 Z " /><path fill="rgb(0,0,0)" stroke="rgb(0,0,0)" stroke-width="1" opacity="0.788235294117647" d="M 516.5 1001 L 517.5 1003 L 516.5 1001 Z " /><path fill="rgb(0,0,0)" stroke="rgb(0,0,0)" stroke-width="1" opacity="0.788235294117647" d="M 698.5 1002 L 699.5 1004 L 698.5 1002 Z " /><path fill="rgb(0,0,0)" stroke="rgb(0,0,0)" stroke-width="1" opacity="0.788235294117647" d="M 518.5 1004 L 519.5 1006 L 518.5 1004 Z " /><path fill="rgb(0,0,0)" stroke="rgb(0,0,0)" stroke-width="1" opacity="0.788235294117647" d="M 701.5 1004 L 702.5 1006 L 701.5 1004 Z " /><path fill="rgb(0,0,0)" stroke="rgb(0,0,0)" stroke-width="1" opacity="0.788235294117647" d="M 1003.5 1005 L 1002.5 1007 L 1003.5 1005 Z " /><path fill="rgb(0,0,0)" stroke="rgb(0,0,0)" stroke-width="1" opacity="0.788235294117647" d="M 520.5 1007 L 521.5 1009 L 520.5 1007 Z " /><path fill="rgb(0,0,0)" stroke="rgb(0,0,0)" stroke-width="1" opacity="0.788235294117647" d="M 1000.5 1007 L 999.5 1009 L 1000.5 1007 Z " /><path fill="rgb(0,0,0)" stroke="rgb(0,0,0)" stroke-width="1" opacity="0.788235294117647" d="M 522.5 1010 L 523.5 1012 L 522.5 1010 Z " /><path fill="rgb(0,0,0)" stroke="rgb(0,0,0)" stroke-width="1" opacity="0.788235294117647" d="M 710.5 1010 L 711.5 1012 L 710.5 1010 Z " /><path fill="rgb(0,0,0)" stroke="rgb(0,0,0)" stroke-width="1" opacity="0.788235294117647" d="M 992.5 1012 L 991.5 1014 L 992.5 1012 Z " /><path fill="rgb(0,0,0)" stroke="rgb(0,0,0)" stroke-width="1" opacity="0.788235294117647" d="M 524.5 1013 L 525.5 1015 L 524.5 1013 Z " /><path fill="rgb(0,0,0)" stroke="rgb(0,0,0)" stroke-width="1" opacity="0.788235294117647" d="M 1181.5 1013 L 1180.5 1015 L 1181.5 1013 Z " /><path fill="rgb(0,0,0)" stroke="rgb(0,0,0)" stroke-width="1" opacity="0.788235294117647" d="M 987.5 1015 L 986.5 1017 L 987.5 1015 Z " /><path fill="rgb(0,0,0)" stroke="rgb(0,0,0)" stroke-width="1" opacity="0.788235294117647" d="M 720.5 1016 L 721.5 1018 L 720.5 1016 Z " /><path fill="rgb(0,0,0)" stroke="rgb(0,0,0)" stroke-width="1" opacity="0.788235294117647" d="M 1179.5 1016 L 1505 1342.5 L 1179 1017.5 L 1179.5 1016 Z " /><path fill="rgb(0,0,0)" stroke="rgb(0,0,0)" stroke-width="1" opacity="0.788235294117647" d="M 527.5 1017 L 528.5 1019 L 527.5 1017 Z " /><path fill="rgb(0,0,0)" stroke="rgb(0,0,0)" stroke-width="1" opacity="0.788235294117647" d="M 529.5 1020 L 531.5 1023 L 529.5 1020 Z " /><path fill="rgb(0,0,0)" stroke="rgb(0,0,0)" stroke-width="1" opacity="0.788235294117647" d="M 978.5 1020 L 977.5 1022 L 978.5 1020 Z " /><path fill="rgb(0,0,0)" stroke="rgb(0,0,0)" stroke-width="1" opacity="0.788235294117647" d="M 532.5 1024 L 534.5 1027 L 532.5 1024 Z " /><path fill="rgb(0,0,0)" stroke="rgb(0,0,0)" stroke-width="1" opacity="0.788235294117647" d="M 535.5 1028 L 537.5 1031 L 535.5 1028 Z " /><path fill="rgb(0,0,0)" stroke="rgb(0,0,0)" stroke-width="1" opacity="0.788235294117647" d="M 539.5 1033 L 541.5 1036 L 539.5 1033 Z " /><path fill="rgb(0,0,0)" stroke="rgb(0,0,0)" stroke-width="1" opacity="0.788235294117647" d="M 543.5 1038 L 545.5 1041 L 543.5 1038 Z " /><path fill="rgb(0,0,0)" stroke="rgb(0,0,0)" stroke-width="1" opacity="0.788235294117647" d="M 548.5 1044 L 551.5 1048 L 548.5 1044 Z " /><path fill="rgb(0,0,0)" stroke="rgb(0,0,0)" stroke-width="1" opacity="0.788235294117647" d="M 793.5 1045 L 796 1045.5 L 793.5 1046 L 793.5 1045 Z " /><path fill="rgb(0,0,0)" stroke="rgb(0,0,0)" stroke-width="1" opacity="0.788235294117647" d="M 803.5 1047 L 806 1047.5 L 803.5 1048 L 803.5 1047 Z " /><path fill="rgb(0,0,0)" stroke="rgb(0,0,0)" stroke-width="1" opacity="0.788235294117647" d="M 809.5 1048 L 812 1048.5 L 809.5 1049 L 809.5 1048 Z " /><path fill="rgb(0,0,0)" stroke="rgb(0,0,0)" stroke-width="1" opacity="0.788235294117647" d="M 895.5 1048 L 898 1048.5 L 895.5 1049 L 895.5 1048 Z " /><path fill="rgb(0,0,0)" stroke="rgb(0,0,0)" stroke-width="1" opacity="0.788235294117647" d="M 815.5 1049 L 819 1049.5 L 815.5 1050 L 815.5 1049 Z " /><path fill="rgb(0,0,0)" stroke="rgb(0,0,0)" stroke-width="1" opacity="0.788235294117647" d="M 888.5 1049 L 891 1049.5 L 888.5 1050 L 888.5 1049 Z " /><path fill="rgb(0,0,0)" stroke="rgb(0,0,0)" stroke-width="1" opacity="0.788235294117647" d="M 823.5 1050 L 827 1050.5 L 823.5 1051 L 823.5 1050 Z " /><path fill="rgb(0,0,0)" stroke="rgb(0,0,0)" stroke-width="1" opacity="0.788235294117647" d="M 879.5 1050 L 883 1050.5 L 879.5 1051 L 879.5 1050 Z " /><path fill="rgb(0,0,0)" stroke="rgb(0,0,0)" stroke-width="1" opacity="0.788235294117647" d="M 554.5 1051 L 561.5 1059 L 554.5 1051 Z " /><path fill="rgb(0,0,0)" stroke="rgb(0,0,0)" stroke-width="1" opacity="0.788235294117647" d="M 833.5 1051 L 843 1051.5 L 833.5 1052 L 833.5 1051 Z " /><path fill="rgb(0,0,0)" stroke="rgb(0,0,0)" stroke-width="1" opacity="0.788235294117647" d="M 863.5 1051 L 873 1051.5 L 863.5 1052 L 863.5 1051 Z " /><path fill="rgb(0,0,0)" stroke="rgb(0,0,0)" stroke-width="1" opacity="0.788235294117647" d="M 579.5 1076 L 586.5 1084 L 579.5 1076 Z " /><path fill="rgb(0,0,0)" stroke="rgb(0,0,0)" stroke-width="1" opacity="0.788235294117647" d="M 590.5 1086 L 594.5 1091 L 590.5 1086 Z " /><path fill="rgb(0,0,0)" stroke="rgb(0,0,0)" stroke-width="1" opacity="0.788235294117647" d="M 597.5 1092 L 599.5 1095 L 597.5 1092 Z " /><path fill="rgb(0,0,0)" stroke="rgb(0,0,0)" stroke-width="1" opacity="0.788235294117647" d="M 602.5 1096 L 605.5 1100 L 602.5 1096 Z " /><path fill="rgb(0,0,0)" stroke="rgb(0,0,0)" stroke-width="1" opacity="0.788235294117647" d="M 607.5 1100 L 609.5 1103 L 607.5 1100 Z " /><path fill="rgb(0,0,0)" stroke="rgb(0,0,0)" stroke-width="1" opacity="0.788235294117647" d="M 612.5 1104 L 613.5 1106 L 612.5 1104 Z " /><path fill="rgb(0,0,0)" stroke="rgb(0,0,0)" stroke-width="1" opacity="0.788235294117647" d="M 616.5 1107 L 617.5 1109 L 616.5 1107 Z " /><path fill="rgb(0,0,0)" stroke="rgb(0,0,0)" stroke-width="1" opacity="0.788235294117647" d="M 619.5 1109 L 620.5 1111 L 619.5 1109 Z " /><path fill="rgb(0,0,0)" stroke="rgb(0,0,0)" stroke-width="1" opacity="0.788235294117647" d="M 1084.5 1111 L 1411 1436.5 L 1085.5 1112 L 1084.5 1111 Z " /><path fill="rgb(0,0,0)" stroke="rgb(0,0,0)" stroke-width="1" opacity="0.788235294117647" d="M 623.5 1112 L 624.5 1114 L 623.5 1112 Z " /><path fill="rgb(0,0,0)" stroke="rgb(0,0,0)" stroke-width="1" opacity="0.788235294117647" d="M 1082.5 1112 L 1081.5 1114 L 1082.5 1112 Z " /><path fill="rgb(0,0,0)" stroke="rgb(0,0,0)" stroke-width="1" opacity="0.788235294117647" d="M 626.5 1114 L 627.5 1116 L 626.5 1114 Z " /><path fill="rgb(0,0,0)" stroke="rgb(0,0,0)" stroke-width="1" opacity="0.788235294117647" d="M 629.5 1116 L 630.5 1118 L 629.5 1116 Z " /><path fill="rgb(0,0,0)" stroke="rgb(0,0,0)" stroke-width="1" opacity="0.788235294117647" d="M 632.5 1118 L 633.5 1120 L 632.5 1118 Z " /><path fill="rgb(0,0,0)" stroke="rgb(0,0,0)" stroke-width="1" opacity="0.788235294117647" d="M 635.5 1120 L 636.5 1122 L 635.5 1120 Z " /><path fill="rgb(0,0,0)" stroke="rgb(0,0,0)" stroke-width="1" opacity="0.788235294117647" d="M 638.5 1122 L 639.5 1124 L 638.5 1122 Z " /><path fill="rgb(0,0,0)" stroke="rgb(0,0,0)" stroke-width="1" opacity="0.788235294117647" d="M 1067.5 1122 L 1066.5 1124 L 1067.5 1122 Z " /><path fill="rgb(0,0,0)" stroke="rgb(0,0,0)" stroke-width="1" opacity="0.788235294117647" d="M 1064.5 1124 L 1063.5 1126 L 1064.5 1124 Z " /><path fill="rgb(0,0,0)" stroke="rgb(0,0,0)" stroke-width="1" opacity="0.788235294117647" d="M 643.5 1125 L 644.5 1127 L 643.5 1125 Z " /><path fill="rgb(0,0,0)" stroke="rgb(0,0,0)" stroke-width="1" opacity="0.788235294117647" d="M 1059.5 1127 L 1058.5 1129 L 1059.5 1127 Z " /><path fill="rgb(0,0,0)" stroke="rgb(0,0,0)" stroke-width="1" opacity="0.788235294117647" d="M 1054.5 1130 L 1053.5 1132 L 1054.5 1130 Z " /><path fill="rgb(0,0,0)" stroke="rgb(0,0,0)" stroke-width="1" opacity="0.788235294117647" d="M 653.5 1131 L 654.5 1133 L 653.5 1131 Z " /><path fill="rgb(0,0,0)" stroke="rgb(0,0,0)" stroke-width="1" opacity="0.788235294117647" d="M 1047.5 1134 L 1046.5 1136 L 1047.5 1134 Z " /><path fill="rgb(0,0,0)" stroke="rgb(0,0,0)" stroke-width="1" opacity="0.788235294117647" d="M 660.5 1135 L 661.5 1137 L 660.5 1135 Z " /><path fill="rgb(0,0,0)" stroke="rgb(0,0,0)" stroke-width="1" opacity="0.788235294117647" d="M 769.5 1176 L 772 1176.5 L 769.5 1177 L 769.5 1176 Z " /><path fill="rgb(0,0,0)" stroke="rgb(0,0,0)" stroke-width="1" opacity="0.788235294117647" d="M 774.5 1177 L 777 1177.5 L 774.5 1178 L 774.5 1177 Z " /><path fill="rgb(0,0,0)" stroke="rgb(0,0,0)" stroke-width="1" opacity="0.788235294117647" d="M 929.5 1177 L 932 1177.5 L 929.5 1178 L 929.5 1177 Z " /><path fill="rgb(0,0,0)" stroke="rgb(0,0,0)" stroke-width="1" opacity="0.788235294117647" d="M 779.5 1178 L 782 1178.5 L 779.5 1179 L 779.5 1178 Z " /><path fill="rgb(0,0,0)" stroke="rgb(0,0,0)" stroke-width="1" opacity="0.788235294117647" d="M 924.5 1178 L 927 1178.5 L 924.5 1179 L 924.5 1178 Z " /><path fill="rgb(0,0,0)" stroke="rgb(0,0,0)" stroke-width="1" opacity="0.788235294117647" d="M 785.5 1179 L 788 1179.5 L 785.5 1180 L 785.5 1179 Z " /><path fill="rgb(0,0,0)" stroke="rgb(0,0,0)" stroke-width="1" opacity="0.788235294117647" d="M 918.5 1179 L 921 1179.5 L 918.5 1180 L 918.5 1179 Z " /><path fill="rgb(0,0,0)" stroke="rgb(0,0,0)" stroke-width="1" opacity="0.788235294117647" d="M 791.5 1180 L 794 1180.5 L 791.5 1181 L 791.5 1180 Z " /><path fill="rgb(0,0,0)" stroke="rgb(0,0,0)" stroke-width="1" opacity="0.788235294117647" d="M 912.5 1180 L 915 1180.5 L 912.5 1181 L 912.5 1180 Z " /><path fill="rgb(0,0,0)" stroke="rgb(0,0,0)" stroke-width="1" opacity="0.788235294117647" d="M 798.5 1181 L 801 1181.5 L 798.5 1182 L 798.5 1181 Z " /><path fill="rgb(0,0,0)" stroke="rgb(0,0,0)" stroke-width="1" opacity="0.788235294117647" d="M 905.5 1181 L 909 1181.5 L 905.5 1182 L 905.5 1181 Z " /><path fill="rgb(0,0,0)" stroke="rgb(0,0,0)" stroke-width="1" opacity="0.788235294117647" d="M 806.5 1182 L 810 1182.5 L 806.5 1183 L 806.5 1182 Z " /><path fill="rgb(0,0,0)" stroke="rgb(0,0,0)" stroke-width="1" opacity="0.788235294117647" d="M 896.5 1182 L 901 1182.5 L 896.5 1183 L 896.5 1182 Z " /><path fill="rgb(0,0,0)" stroke="rgb(0,0,0)" stroke-width="1" opacity="0.788235294117647" d="M 815.5 1183 L 821 1183.5 L 815.5 1184 L 815.5 1183 Z " /><path fill="rgb(0,0,0)" stroke="rgb(0,0,0)" stroke-width="1" opacity="0.788235294117647" d="M 886.5 1183 L 891 1183.5 L 886.5 1184 L 886.5 1183 Z " /><path fill="rgb(0,0,0)" stroke="rgb(0,0,0)" stroke-width="1" opacity="0.788235294117647" d="M 828.5 1184 L 838 1184.5 L 828.5 1185 L 828.5 1184 Z " /><path fill="rgb(0,0,0)" stroke="rgb(0,0,0)" stroke-width="1" opacity="0.788235294117647" d="M 869.5 1184 L 879 1184.5 L 869.5 1185 L 869.5 1184 Z " /><path fill="rgb(0,0,0)" stroke="rgb(0,0,0)" stroke-width="1" opacity="0.788235294117647" d="M 1506.5 1345 L 1507.5 1347 L 1506.5 1345 Z " /><path fill="rgb(0,0,0)" stroke="rgb(0,0,0)" stroke-width="1" opacity="0.788235294117647" d="M 1508.5 1348 L 1509.5 1350 L 1508.5 1348 Z " /><path fill="rgb(0,0,0)" stroke="rgb(0,0,0)" stroke-width="1" opacity="0.788235294117647" d="M 1511.5 1353 L 1514 1357.5 L 1513 1357.5 L 1511.5 1353 Z " /><path fill="rgb(0,0,0)" stroke="rgb(0,0,0)" stroke-width="1" opacity="0.788235294117647" d="M 1518.5 1371 L 1519 1373.5 L 1518 1373.5 L 1518.5 1371 Z " /><path fill="rgb(0,0,0)" stroke="rgb(0,0,0)" stroke-width="1" opacity="0.788235294117647" d="M 1519.5 1377 L 1520 1383.5 L 1519 1383.5 L 1519.5 1377 Z " /><path fill="rgb(0,0,0)" stroke="rgb(0,0,0)" stroke-width="1" opacity="0.788235294117647" d="M 1519.5 1386 L 1520 1393.5 L 1519 1393.5 L 1519.5 1386 Z " /><path fill="rgb(0,0,0)" stroke="rgb(0,0,0)" stroke-width="1" opacity="0.788235294117647" d="M 1510.5 1419 L 1509.5 1421 L 1510.5 1419 Z " /><path fill="rgb(0,0,0)" stroke="rgb(0,0,0)" stroke-width="1" opacity="0.788235294117647" d="M 1508.5 1422 L 1507.5 1424 L 1508.5 1422 Z " /><path fill="rgb(0,0,0)" stroke="rgb(0,0,0)" stroke-width="1" opacity="0.788235294117647" d="M 1506.5 1425 L 1503.5 1429 L 1506.5 1425 Z " /><path fill="rgb(0,0,0)" stroke="rgb(0,0,0)" stroke-width="1" opacity="0.788235294117647" d="M 1496.5 1435 L 1493.5 1439 L 1496.5 1435 Z " /><path fill="rgb(0,0,0)" stroke="rgb(0,0,0)" stroke-width="1" opacity="0.788235294117647" d="M 1413.5 1438 L 1414.5 1440 L 1413.5 1438 Z " /><path fill="rgb(0,0,0)" stroke="rgb(0,0,0)" stroke-width="1" opacity="0.788235294117647" d="M 1491.5 1439 L 1490.5 1441 L 1491.5 1439 Z " /><path fill="rgb(0,0,0)" stroke="rgb(0,0,0)" stroke-width="1" opacity="0.788235294117647" d="M 1416.5 1440 L 1417.5 1442 L 1416.5 1440 Z " /><path fill="rgb(0,0,0)" stroke="rgb(0,0,0)" stroke-width="1" opacity="0.788235294117647" d="M 1488.5 1441 L 1487.5 1443 L 1488.5 1441 Z " /><path fill="rgb(0,0,0)" stroke="rgb(0,0,0)" stroke-width="1" opacity="0.788235294117647" d="M 1421.5 1443 L 1426 1445.5 L 1424.5 1446 L 1421.5 1443 Z " /><path fill="rgb(0,0,0)" stroke="rgb(0,0,0)" stroke-width="1" opacity="0.788235294117647" d="M 1439.5 1450 L 1442 1450.5 L 1439.5 1451 L 1439.5 1450 Z " /><path fill="rgb(0,0,0)" stroke="rgb(0,0,0)" stroke-width="1" opacity="0.788235294117647" d="M 1445.5 1451 L 1452 1451.5 L 1445.5 1452 L 1445.5 1451 Z " /><path fill="rgb(0,0,0)" stroke="rgb(0,0,0)" stroke-width="1" opacity="0.788235294117647" d="M 1455.5 1451 L 1462 1451.5 L 1455.5 1452 L 1455.5 1451 Z " /><path fill="rgb(0,0,0)" stroke="rgb(0,0,0)" stroke-width="1" opacity="1" d="M 845.5 385 L 882.5 386 L 883.5 387 L 902.5 388 L 903.5 389 L 933.5 393 L 965.5 401 L 1005.5 415 Q 1087.5 450 1144 510.5 Q 1196.6 565.4 1227 642.5 L 1241 686.5 L 1249 726.5 L 1249 733.5 L 1251 742.5 L 1251 752.5 L 1252 753.5 L 1252 769.5 L 1253 770.5 L 1253 799.5 L 1252 800.5 L 1252 817.5 L 1251 818.5 L 1250 836.5 L 1249 837.5 L 1246 861.5 L 1240 887.5 L 1229 922.5 Q 1209.2 975.2 1179 1017.5 L 1506 1344.5 L 1516 1362.5 L 1519 1374.5 Q 1517.5 1382 1520 1385.5 L 1519 1386.5 L 1519 1396.5 L 1515 1410.5 Q 1508.6 1425.1 1497.5 1435 L 1478.5 1447 L 1464.5 1451 L 1452.5 1452 L 1430.5 1448 L 1412.5 1438 L 1084.5 1111 Q 1035.2 1147.7 969.5 1168 L 934.5 1177 L 929.5 1177 L 904.5 1182 L 886.5 1183 L 885.5 1184 L 869.5 1184 L 868.5 1185 L 838.5 1185 L 837.5 1184 L 821.5 1184 L 820.5 1183 L 801.5 1182 L 762.5 1175 Q 721.3 1165.2 686.5 1149 Q 613.7 1114.8 562 1059.5 Q 511.1 1006.4 481 932.5 L 469 897.5 L 460 860.5 L 457 835.5 L 456 834.5 L 455 815.5 L 454 814.5 L 453 777.5 L 454 776.5 L 454 755.5 L 455 754.5 L 456 735.5 L 463 695.5 L 469 672.5 L 487 623.5 Q 519.8 550.8 573.5 499 Q 625.7 447.2 698.5 416 L 740.5 401 L 763.5 395 L 803.5 388 L 822.5 387 L 823.5 386 L 844.5 386 L 845.5 385 Z M 838 518 L 837 519 L 817 520 L 795 524 Q 771 529 751 538 Q 707 556 675 586 Q 634 623 609 676 Q 598 699 592 727 L 588 749 L 587 769 L 586 770 L 586 802 L 587 803 L 588 822 L 595 856 L 602 878 Q 621 927 653 963 Q 691 1006 748 1031 L 772 1040 L 794 1046 L 816 1050 L 833 1051 L 834 1052 L 873 1052 L 874 1051 L 891 1050 L 913 1046 L 944 1037 Q 993 1019 1029 987 Q 1066 955 1090 910 Q 1103 885 1111 857 L 1117 830 L 1119 806 L 1120 805 L 1120 766 L 1119 765 L 1118 748 L 1114 726 L 1107 701 Q 1088 647 1054 609 Q 1016 565 961 540 L 928 528 L 902 522 L 883 520 L 882 519 L 871 519 L 870 518 L 838 518 Z " /></svg>